# Blender v2.78 (sub 0) OBJ File: 'SmallAsteroid.blend'
# www.blender.org
mtllib SmallAsteroid.mtl
o Small_Asteroid_Mesh.002
v -0.131962 -0.158023 0.072334
v -0.008036 -0.166054 0.048384
v -0.140414 -0.131809 -0.073056
v -0.165357 -0.028591 0.155384
v -0.071158 0.112597 0.199831
v 0.169669 -0.035167 0.050494
v 0.005888 -0.028135 0.182590
v 0.102289 -0.156797 -0.102974
v 0.209994 0.020485 -0.085894
v 0.107708 -0.022053 -0.184960
v 0.142634 0.104883 0.055132
v -0.088752 0.113970 -0.172360
v -0.135780 0.163083 -0.076205
v 0.003276 0.211610 -0.068700
vt 0.3006 0.8248
vt 0.1129 0.9932
vt 0.1013 0.7504
vt 0.3626 0.9101
vt 0.4216 0.6715
vt 0.4440 0.8908
vt 0.3626 0.1756
vt 0.1994 0.1700
vt 0.2401 0.0000
vt 0.1858 0.5312
vt 0.3307 0.6540
vt 0.3300 0.9932
vt 0.2425 0.3638
vt 0.3191 0.5312
vt 0.0052 0.5312
vt 0.6004 0.4185
vt 0.5449 0.5002
vt 0.3626 0.2046
vt 0.7633 0.9372
vt 1.0000 0.6783
vt 0.9372 0.9372
vt 0.8747 0.5012
vt 0.9858 0.5002
vt 0.0000 0.5772
vt 0.5362 0.0000
vt 0.4141 0.0086
vt 0.7270 0.0455
vt 0.6897 0.6197
vt 0.7270 0.4425
vt 0.5570 0.5379
vt 0.6937 0.7475
vt 0.0000 0.3067
vt 0.6937 1.0000
vt 0.6937 0.5002
vn 0.4649 -0.6411 0.6106
vn 0.7200 -0.3816 -0.5796
vn 0.8523 -0.5216 0.0392
vn -0.1287 -0.5589 0.8192
vn 0.5515 -0.7545 0.3558
vn 0.3036 0.8636 0.4026
vn -0.8964 0.0094 -0.4432
vn 0.6686 0.7339 -0.1199
vn -0.2524 0.8061 -0.5352
vn -0.1531 -0.2023 0.9673
vn -0.9933 0.0144 -0.1150
vn -0.9667 -0.2559 0.0101
vn -0.8367 0.4696 0.2818
vn -0.1567 -0.5088 -0.8465
vn -0.3312 0.9114 0.2442
vn -0.1192 -0.9819 -0.1469
vn 0.3793 0.4814 -0.7902
vn 0.3912 0.6274 -0.6733
vn 0.9248 0.1672 0.3417
vn 0.6274 0.0955 0.7728
vn 0.0917 -0.6992 0.7090
vn -0.2733 -0.3104 -0.9105
vn -0.0966 -0.9805 -0.1712
vn 0.5537 0.2043 0.8073
usemtl Material
s off
f 2/1/1 6/2/1 7/3/1
f 9/4/2 8/5/2 10/6/2
f 9/7/3 6/8/3 8/9/3
f 7/3/4 4/10/4 1/11/4
f 2/1/5 8/12/5 6/2/5
f 11/13/6 14/14/6 5/15/6
f 13/16/7 12/17/7 3/18/7
f 9/19/8 14/20/8 11/21/8
f 12/22/9 13/23/9 14/20/9
f 7/3/10 5/24/10 4/10/10
f 13/16/11 3/18/11 4/25/11
f 3/18/12 1/26/12 4/25/12
f 13/16/13 4/25/13 5/27/13
f 3/28/14 10/6/14 8/5/14
f 5/27/15 14/29/15 13/16/15
f 2/30/16 3/28/16 8/5/16
f 9/19/17 12/22/17 14/20/17
f 12/22/18 9/19/18 10/31/18
f 9/7/19 11/13/19 6/8/19
f 11/13/20 7/32/20 6/8/20
f 2/1/21 7/3/21 1/11/21
f 3/28/22 12/33/22 10/6/22
f 2/30/23 1/34/23 3/28/23
f 11/13/24 5/15/24 7/32/24
